<?xml version="1.0"?>
<svg xmlns="http://www.w3.org/2000/svg" xmlns:xlink="http://www.w3.org/1999/xlink" version="1.1" viewBox="0 0 252 252" width="128px" height="128px"><g fill="none" fill-rule="nonzero" stroke="none" stroke-width="1" stroke-linecap="butt" stroke-linejoin="miter" stroke-miterlimit="10" stroke-dasharray="" stroke-dashoffset="0" font-family="none" font-weight="none" font-size="none" text-anchor="none" style="mix-blend-mode: normal"><path d="M0,252v-252h252v252z" fill="none"/><g><g id="surface1"><path d="M11.8125,122.0625h228.375v94.5h-228.375z" fill="#f9dd8f"/><path d="M11.8125,200.8125h228.375v15.75h-228.375z" fill="#efc88e"/><path d="M11.8125,122.0625h228.375v15.75h-228.375z" fill="#efc88e"/><path d="M38.69824,55.80176l-22.27148,22.27148c-2.95312,2.9685 -4.61426,6.96753 -4.61426,11.15112v24.96314c0,4.35278 3.52222,7.875 7.875,7.875h212.625c4.35278,0 7.875,-3.52222 7.875,-7.875v-24.96314c0,-4.18359 -1.66113,-8.18262 -4.61426,-11.15112l-22.27148,-22.27148c-2.9685,-2.95312 -6.96753,-4.61426 -11.15112,-4.61426h-152.30127c-4.18359,0 -8.18262,1.66113 -11.15112,4.61426z" fill="#ed7899"/><path d="M228.375,70.875l-15.07324,-15.07324c-2.9685,-2.95312 -6.96753,-4.61426 -11.15112,-4.61426h-152.30127c-4.18359,0 -8.18262,1.66113 -11.15112,4.61426l-15.07324,15.07324z" fill="#f283a5"/><path d="M169.3125,114.1875h31.5v23.625h-31.5z" fill="#c2cde7"/><path d="M51.1875,114.1875h31.5v23.625h-31.5z" fill="#c2cde7"/><path d="M238.37256,75.28931l-11.13574,-11.15112l-11.15113,-11.13574c-3.69141,-3.69141 -8.70556,-5.76782 -13.93506,-5.75244h-36.77564v-4.61426c0,-3.12232 -1.24585,-6.12158 -3.46069,-8.33642l-7.21362,-7.21363c-2.21484,-2.21484 -5.21411,-3.46069 -8.33643,-3.46069h-40.72852c-3.12232,0 -6.12158,1.24585 -8.33642,3.46069l-7.21363,7.21363c-2.21484,2.21484 -3.46069,5.21411 -3.46069,8.33642v4.61426h-36.77564c-5.22949,-0.01538 -10.24365,2.06104 -13.93506,5.75244l-11.15112,11.13574l-11.13574,11.15112c-3.69141,3.69141 -5.76782,8.70556 -5.75244,13.93506v119.46314c0,6.52148 5.29102,11.8125 11.8125,11.8125h212.625c6.52148,0 11.8125,-5.29102 11.8125,-11.8125v-119.46314c0.01538,-5.22949 -2.06103,-10.24365 -5.75244,-13.93506zM94.5,42.63574c0,-1.0459 0.3999,-2.04565 1.13819,-2.78393l7.21362,-7.21362c0.73828,-0.73828 1.73804,-1.13819 2.78393,-1.13819h40.72852c1.0459,0 2.04565,0.3999 2.78393,1.13819l7.21363,7.21362c0.73828,0.73828 1.13818,1.73804 1.13818,2.78393v4.61426h-63zM19.21069,80.87256l4.69117,-4.67578c0.69214,1.73804 2.52246,2.75317 4.36816,2.41479c1.8457,-0.323 3.19922,-1.92261 3.22998,-3.79907v-6.26001l9.99756,-9.99756c2.23022,-2.19946 5.22949,-3.44531 8.3518,-3.42993h152.30127c3.1377,0 6.13696,1.24585 8.35181,3.46069l9.99756,9.9668v6.26001c0.04614,1.87647 1.41504,3.44531 3.24536,3.76831c1.8457,0.323 3.66064,-0.69214 4.35278,-2.43017l4.69116,4.69116c2.21484,2.21484 3.47607,5.22949 3.46069,8.38257v28.90064h-31.5c0,-4.35278 -3.52222,-7.875 -7.875,-7.875h-23.625c-4.35278,0 -7.875,3.52222 -7.875,7.875h-78.75c0,-4.35278 -3.52222,-7.875 -7.875,-7.875h-23.625c-4.35278,0 -7.875,3.52222 -7.875,7.875h-31.5v-28.90064c0,-3.1377 1.24585,-6.13696 3.46069,-8.3518zM196.875,133.875h-23.625v-15.75h23.625zM78.75,133.875h-23.625v-15.75h23.625zM236.25,208.6875c0,2.1687 -1.7688,3.9375 -3.9375,3.9375h-212.625c-2.1687,0 -3.9375,-1.7688 -3.9375,-3.9375v-82.6875h31.5v7.875c0,4.35278 3.52222,7.875 7.875,7.875h23.625c4.35278,0 7.875,-3.52222 7.875,-7.875v-7.875h78.75v7.875c0,4.35278 3.52222,7.875 7.875,7.875h23.625c4.35278,0 7.875,-3.52222 7.875,-7.875v-7.875h31.5z" fill="#8d6c9f"/><path d="M66.9375,78.75c2.1687,0 3.9375,-1.7688 3.9375,-3.9375v-7.875c0,-2.1687 -1.7688,-3.9375 -3.9375,-3.9375c-2.1687,0 -3.9375,1.7688 -3.9375,3.9375v7.875c0,2.1687 1.7688,3.9375 3.9375,3.9375z" fill="#8d6c9f"/><path d="M47.25,78.75c2.1687,0 3.9375,-1.7688 3.9375,-3.9375v-7.875c0,-2.1687 -1.7688,-3.9375 -3.9375,-3.9375c-2.1687,0 -3.9375,1.7688 -3.9375,3.9375v7.875c0,2.1687 1.7688,3.9375 3.9375,3.9375z" fill="#8d6c9f"/><path d="M126,78.75c2.1687,0 3.9375,-1.7688 3.9375,-3.9375v-7.875c0,-2.1687 -1.7688,-3.9375 -3.9375,-3.9375c-2.1687,0 -3.9375,1.7688 -3.9375,3.9375v7.875c0,2.1687 1.7688,3.9375 3.9375,3.9375z" fill="#8d6c9f"/><path d="M86.625,78.75c2.1687,0 3.9375,-1.7688 3.9375,-3.9375v-7.875c0,-2.1687 -1.7688,-3.9375 -3.9375,-3.9375c-2.1687,0 -3.9375,1.7688 -3.9375,3.9375v7.875c0,2.1687 1.7688,3.9375 3.9375,3.9375z" fill="#8d6c9f"/><path d="M106.3125,78.75c2.1687,0 3.9375,-1.7688 3.9375,-3.9375v-7.875c0,-2.1687 -1.7688,-3.9375 -3.9375,-3.9375c-2.1687,0 -3.9375,1.7688 -3.9375,3.9375v7.875c0,2.1687 1.7688,3.9375 3.9375,3.9375z" fill="#8d6c9f"/><path d="M145.6875,78.75c2.1687,0 3.9375,-1.7688 3.9375,-3.9375v-7.875c0,-2.1687 -1.7688,-3.9375 -3.9375,-3.9375c-2.1687,0 -3.9375,1.7688 -3.9375,3.9375v7.875c0,2.1687 1.7688,3.9375 3.9375,3.9375z" fill="#8d6c9f"/><path d="M204.75,78.75c2.1687,0 3.9375,-1.7688 3.9375,-3.9375v-7.875c0,-2.1687 -1.7688,-3.9375 -3.9375,-3.9375c-2.1687,0 -3.9375,1.7688 -3.9375,3.9375v7.875c0,2.1687 1.7688,3.9375 3.9375,3.9375z" fill="#8d6c9f"/><path d="M165.375,78.75c2.1687,0 3.9375,-1.7688 3.9375,-3.9375v-7.875c0,-2.1687 -1.7688,-3.9375 -3.9375,-3.9375c-2.1687,0 -3.9375,1.7688 -3.9375,3.9375v7.875c0,2.1687 1.7688,3.9375 3.9375,3.9375z" fill="#8d6c9f"/><path d="M185.0625,78.75c2.1687,0 3.9375,-1.7688 3.9375,-3.9375v-7.875c0,-2.1687 -1.7688,-3.9375 -3.9375,-3.9375c-2.1687,0 -3.9375,1.7688 -3.9375,3.9375v7.875c0,2.1687 1.7688,3.9375 3.9375,3.9375z" fill="#8d6c9f"/><path d="M192.9375,196.875h-165.375c-2.1687,0 -3.9375,1.7688 -3.9375,3.9375c0,2.1687 1.7688,3.9375 3.9375,3.9375h165.375c2.1687,0 3.9375,-1.7688 3.9375,-3.9375c0,-2.1687 -1.7688,-3.9375 -3.9375,-3.9375z" fill="#8d6c9f"/><path d="M204.75,200.8125c0,2.1687 1.7688,3.9375 3.9375,3.9375h15.75c2.1687,0 3.9375,-1.7688 3.9375,-3.9375c0,-2.1687 -1.7688,-3.9375 -3.9375,-3.9375h-15.75c-2.1687,0 -3.9375,1.7688 -3.9375,3.9375z" fill="#8d6c9f"/></g></g><g><g id="Layer_1"><path d="M248.0625,220.5c0,7.875 -3.83119,23.562 -3.969,24.11719c-0.49219,1.99237 -1.87425,3.44531 -3.906,3.44531h-39.375h-27.5625c-2.36644,0 -4.20131,-2.07506 -3.906,-4.42575c0,0 3.906,-15.26175 3.906,-23.13675c-4.92187,0 -5.90625,3.9375 -13.78125,3.9375c-7.61119,0 -13.78125,-6.17006 -13.78125,-13.78125c0,-7.61119 6.17006,-13.78125 13.78125,-13.78125c7.875,0 8.85938,3.9375 13.78125,3.9375c0,-7.875 -3.906,-27.07425 -3.906,-27.07425c-0.29531,-2.35069 1.53956,-4.42575 3.906,-4.42575c0,0 15.75,3.9375 23.625,3.9375c0,-4.92187 -3.9375,-5.90625 -3.9375,-13.78125c0,-7.61119 6.17006,-13.78125 13.78125,-13.78125c7.61119,0 13.78125,6.17006 13.78125,13.78125c0,7.875 -3.9375,8.85938 -3.9375,13.78125c7.875,0 23.625,-3.9375 23.625,-3.9375c2.03175,0 3.57131,1.5435 3.90994,3.44531c0.09844,0.56306 3.96506,20.17969 3.96506,28.05469c-4.92187,0 -5.90625,-3.9375 -13.78125,-3.9375c-7.61119,0 -13.78125,6.17006 -13.78125,13.78125c0,7.61119 6.17006,13.78125 13.78125,13.78125c7.875,0 8.85938,-3.9375 13.78125,-3.9375z" fill="#72caaf"/><path d="M240.1875,252h-66.9375c-2.25619,0 -4.40606,-0.96862 -5.90231,-2.66175c-1.49231,-1.69313 -2.19319,-3.94538 -1.90969,-6.18975c0.01969,-0.16538 0.05119,-0.32681 0.09056,-0.49219c0.0315,-0.11419 2.30738,-9.06806 3.31537,-16.46663c-2.06325,1.05919 -4.86675,2.18531 -9.37519,2.18531c-9.76894,0 -17.71875,-7.94981 -17.71875,-17.71875c0,-9.76894 7.94981,-17.71875 17.71875,-17.71875c4.55175,0 7.371,1.14975 9.43425,2.21681c-0.9765,-8.57194 -3.39019,-20.47894 -3.41775,-20.62856c-0.33075,-2.54363 0.37012,-4.79981 1.86244,-6.489c1.49625,-1.69312 3.64612,-2.66175 5.90231,-2.66175c0.32288,0 0.64181,0.03938 0.95288,0.11813c0.11812,0.0315 9.43425,2.34281 16.98244,3.35475c-1.05919,-2.05931 -2.18531,-4.86675 -2.18531,-9.37912c0,-9.76894 7.94981,-17.71875 17.71875,-17.71875c9.76894,0 17.71875,7.94981 17.71875,17.71875c0,4.51237 -1.12613,7.31981 -2.18531,9.37912c7.54819,-1.01194 16.86038,-3.32325 16.98244,-3.35475c0.31106,-0.07875 0.63,-0.11812 0.95288,-0.11812c3.82331,0 7.09537,2.81531 7.78444,6.69375c1.53956,8.05219 4.02806,22.03031 4.02806,28.74375c0,2.1735 -1.76006,3.9375 -3.9375,3.9375c-3.1815,0 -5.31956,-1.16944 -7.03631,-2.10656c-1.79944,-0.98437 -3.35475,-1.83094 -6.74494,-1.83094c-5.42981,0 -9.84375,4.41788 -9.84375,9.84375c0,5.42588 4.41394,9.84375 9.84375,9.84375c3.39019,0 4.9455,-0.84656 6.74494,-1.83094c1.71675,-0.93712 3.85481,-2.10656 7.03631,-2.10656c2.17744,0 3.9375,1.764 3.9375,3.9375c0,8.57194 -4.04381,24.90469 -4.08319,25.07006c-0.96469,3.90206 -4.0005,6.42994 -7.72931,6.42994zM173.25,244.125h66.8745c0.00394,-0.04725 0.08269,-0.19294 0.14569,-0.45281c0.74812,-3.01612 2.54362,-11.02106 3.39412,-17.48644c-2.05931,1.05919 -4.86675,2.18925 -9.38306,2.18925c-9.76894,0 -17.71875,-7.94981 -17.71875,-17.71875c0,-9.76894 7.94981,-17.71875 17.71875,-17.71875c4.55569,0 7.371,1.14975 9.43819,2.21681c-0.58275,-5.23294 -1.77581,-12.68269 -3.42562,-21.28612c0,-0.01575 -0.07481,-0.40162 -0.07875,-0.41738v-0.09056c-3.57525,0.85837 -16.43512,3.82725 -23.65256,3.82725c-2.17744,0 -3.9375,-1.764 -3.9375,-3.9375c0,-3.17756 1.16944,-5.31956 2.10656,-7.03631c0.98044,-1.79944 1.83094,-3.35081 1.83094,-6.74494c0,-5.42588 -4.41394,-9.84375 -9.84375,-9.84375c-5.42981,0 -9.84375,4.41787 -9.84375,9.84375c0,3.39413 0.8505,4.9455 1.83094,6.74494c0.93712,1.71675 2.10656,3.85875 2.10656,7.03631c0,2.1735 -1.76006,3.9375 -3.9375,3.9375c-7.182,0 -19.94344,-2.93738 -23.59744,-3.81544c0.35438,1.70888 3.90994,19.55363 3.90994,27.44044c0,2.1735 -1.76006,3.9375 -3.9375,3.9375c-3.1815,0 -5.31956,-1.16944 -7.03631,-2.10656c-1.79944,-0.98437 -3.35475,-1.83094 -6.74494,-1.83094c-5.42981,0 -9.84375,4.41788 -9.84375,9.84375c0,5.42588 4.41394,9.84375 9.84375,9.84375c3.39019,0 4.9455,-0.84656 6.74494,-1.83094c1.71675,-0.93712 3.85481,-2.10656 7.03631,-2.10656c2.17744,0 3.9375,1.764 3.9375,3.9375c0,7.54819 -3.24844,20.86087 -3.9375,23.625z" fill="#8d6c9f"/></g></g></g></svg>
